<?xml version="1.0" encoding="UTF-8"?>
<svg xmlns="http://www.w3.org/2000/svg" xmlns:xlink="http://www.w3.org/1999/xlink" width="20pt" height="20pt" viewBox="0 0 20 20" version="1.1">
<g id="surface1">
<path style=" stroke:none;fill-rule:nonzero;fill:rgb(0%,60%,80%);fill-opacity:1;" d="M 9.992188 0 C 4.472656 0 0 4.472656 0 9.992188 C 0 15.511719 4.472656 19.988281 9.992188 19.988281 C 15.511719 19.988281 19.988281 15.511719 19.988281 9.992188 C 19.988281 4.472656 15.515625 0 9.992188 0 Z M 15.882812 12.800781 C 15.882812 13.292969 15.761719 13.78125 15.535156 14.21875 L 10.644531 9.328125 L 9.34375 10.628906 L 15.367188 16.652344 L 14.71875 17.296875 L 14.726562 17.304688 C 13.808594 16.382812 12.558594 15.867188 11.257812 15.867188 L 7.171875 15.867188 C 5.480469 15.867188 4.105469 14.492188 4.105469 12.800781 L 4.105469 7.15625 C 4.105469 5.464844 5.480469 4.089844 7.171875 4.089844 L 12.816406 4.089844 C 14.507812 4.089844 15.882812 5.464844 15.882812 7.15625 Z M 15.882812 12.800781 "/>
</g>
</svg>
